<?xml version="1.0" encoding="UTF-8" standalone="no"?>
<svg
   xmlns:svg="http://www.w3.org/2000/svg"
   xmlns="http://www.w3.org/2000/svg"
   width="20"
   height="20"
>

  <path
     style="fill:#000000;fill-rule:nonzero;stroke-width:0.89999998"
     d="m 4.9296875,1.5273438 c -0.549,0 -0.9902344,0.4233124 -0.9902344,0.9453124 V 8.1542969 C 3.9929718,8.1073482 4.0362288,8.0501836 4.09375,8.0078125 4.4641691,7.6414817 4.869899,7.3679645 5.2890625,7.1503906 V 2.8496094 H 17.501953 V 11.957031 L 15.234375,9.2851562 c -0.220904,-0.204796 -0.562299,-0.204796 -0.783203,0 l -2.00586,1.8535158 -0.451171,-0.421875 c 0.101968,0.808412 -0.008,1.673794 -0.398438,2.529297 -0.04665,0.163457 -0.103202,0.325377 -0.201172,0.464844 l -0.002,0.002 -0.257812,0.36914 h 6.736328 c 0.54,0 0.982422,-0.422125 0.982422,-0.953125 V 2.4726562 c 0,-0.522 -0.442422,-0.9453124 -0.982422,-0.9453124 z M 14.714844,3.8828125 C 13.350658,3.8741006 12.49215,5.3495586 13.173828,6.53125 14.349609,8.5716138 17.410156,6.8079419 16.234375,4.7675781 15.921123,4.2235411 15.342608,3.8866937 14.714844,3.8828125 Z"
     id="path2"/>
  <path
     style="fill:#000000;fill-rule:evenodd;stroke-width:0.69999999"
     d="m 6.8138243,16.679773 0.6937,-0.9912 a 0.52500478,0.52500478 0 1 1 0.8603,0.602 l -0.8036,1.148 a 0.5236,0.5236 0 0 1 -0.1519,0.1442 3.6757,3.6757 0 0 1 -5.9521,-4.1685 c 0.014,-0.0665 0.042,-0.1323 0.084,-0.1918 l 0.8029,-1.1473 a 0.525,0.525 0 1 1 0.8596,0.602 l -0.6937,0.9926 0.0042,0.0021 a 2.625,2.625 0 0 0 4.2924,3.0058 l 0.0042,0.0028 z m 3.8457997,-3.7345 a 0.5236,0.5236 0 0 1 -0.084,0.1918 l -0.8028997,1.1473 a 0.525,0.525 0 1 1 -0.8596,-0.602 l 0.602,-0.861 a 2.625,2.625 0 0 0 -4.3008,-3.0106998 l -0.602,0.8602998 a 0.52500478,0.52500478 0 0 1 -0.8603,-0.602 l 0.8036,-1.1479998 a 0.5236,0.5236 0 0 1 0.1519,-0.1442 3.6757,3.6757 0 0 1 5.9520997,4.1684998 z m -3.1940997,-1.7724 a 0.525,0.525 0 0 1 0.1288,0.7315 l -2.2085,3.1535 a 0.52500478,0.52500478 0 1 1 -0.8603,-0.602 l 2.2085,-3.1542 a 0.525,0.525 0 0 1 0.7315,-0.1288 z" />
</svg>
