<?xml version="1.0" encoding="utf-8"?>
<!-- Generator: Adobe Illustrator 23.0.1, SVG Export Plug-In . SVG Version: 6.00 Build 0)  -->
<svg version="1.1" id="Capa_1" xmlns="http://www.w3.org/2000/svg" xmlns:xlink="http://www.w3.org/1999/xlink" x="0px" y="0px"
	 viewBox="0 0 200 40" style="enable-background:new 0 0 200 40;" xml:space="preserve">
<style type="text/css">
	.st0{enable-background:new    ;}
	.st1{fill:#4A148C;}
	.st2{fill:#00BCD4;}
</style>
<g class="st0">
	<path class="st1" d="M18.5,21.7c0,3.7-2.9,6.5-6.8,6.5c-3.9,0-6.7-2.7-6.7-6.6V8.9l3.7-0.5v8.3c0.9-0.9,2.2-1.4,3.6-1.4
		C15.8,15.4,18.5,18.1,18.5,21.7z M15.1,21.8c0-1.9-1.4-3.3-3.2-3.3c-1.9,0-3.3,1.4-3.3,3.3c0,1.9,1.4,3.3,3.2,3.3
		C13.7,25.1,15.1,23.7,15.1,21.8z"/>
	<path class="st1" d="M27.9,27.9l-0.1-0.8c-0.8,0.7-1.9,1.2-3.1,1.2c-2.5,0-4.6-1.9-4.6-4.3c0-2.4,2-4.3,4.7-4.3c1,0,2,0.3,2.8,0.9
		V20c0-1.3-0.7-2-2.7-2c-1,0-2,0.2-2.9,0.5l0.4-2.7c1.1-0.3,2.2-0.4,3.2-0.4c3.5,0,5.4,1.4,5.4,4.4v5.9l0.1,2.2H27.9z M27.7,23.8
		c0-1.1-0.9-1.9-2.1-1.9c-1.2,0-2,0.8-2,1.9s0.9,1.9,2,1.9C26.8,25.7,27.7,24.9,27.7,23.8z"/>
	<path class="st1" d="M45.7,20.4v7.5H42v-7c0-1.5-0.9-2.4-2.2-2.4c-1.4,0-2.3,1-2.3,2.5v6.9h-3.6v-12l3.5-0.4v1.4
		c0.9-1,2.2-1.6,3.7-1.6C44,15.4,45.7,17.3,45.7,20.4z"/>
	<path class="st1" d="M61.2,15.5v18.3h-3.6v-7.1c-0.9,0.9-2.2,1.5-3.6,1.5c-3.3,0-6-2.8-6-6.4c0-3.6,2.7-6.4,6-6.4
		c1.6,0,2.9,0.6,3.8,1.7v-1.1L61.2,15.5z M57.8,21.8c0-1.8-1.4-3.3-3.2-3.3c-1.8,0-3.2,1.4-3.2,3.3c0,1.9,1.4,3.3,3.2,3.3
		C56.4,25.1,57.8,23.6,57.8,21.8z"/>
	<path class="st1" d="M75.9,15.4v12.5h-3.6v-1.3c-0.9,1-2.1,1.6-3.6,1.6c-2.9,0-4.5-2-4.5-5v-7.3l3.6-0.5v7.3c0,1.5,0.9,2.3,2.1,2.3
		c1.3,0,2.3-1,2.3-2.5v-6.7L75.9,15.4z"/>
	<path class="st1" d="M89.5,23.5l1,2.7c-1.5,1.2-3.5,2-5.5,2c-3.9,0-6.7-2.8-6.7-6.4s2.8-6.5,6.6-6.5c3.2,0,5.8,2.1,6.1,5.8L82,24
		c0.6,0.9,1.7,1.5,3,1.5C86.4,25.4,87.9,24.9,89.5,23.5z M81.4,21.4l5.9-1.9c-0.5-0.9-1.4-1.4-2.5-1.4C83,18.1,81.6,19.4,81.4,21.4z
		"/>
	<path class="st1" d="M100.6,15.4v3.3c-2.4,0-3.7,1.1-3.7,3.6v5.6h-3.6v-12l3.4-0.4v2C97.4,16.1,98.7,15.4,100.6,15.4z"/>
	<path class="st1" d="M101.6,21.8c0-3.6,2.9-6.5,6.7-6.5s6.7,2.8,6.7,6.5c0,3.6-2.9,6.4-6.7,6.4S101.6,25.4,101.6,21.8z M111.6,21.8
		c0-1.9-1.4-3.3-3.2-3.3s-3.3,1.4-3.3,3.3c0,1.9,1.4,3.3,3.3,3.3S111.6,23.6,111.6,21.8z"/>
</g>
<g class="st0">
	<path class="st2" d="M117.4,25.8c0-1.3,1.1-2.3,2.4-2.3c1.3,0,2.4,1,2.4,2.3s-1.1,2.3-2.4,2.3C118.5,28.2,117.4,27.1,117.4,25.8z"
		/>
	<path class="st2" d="M124.2,21.8c0-3.6,2.9-6.5,6.7-6.5c3.8,0,6.7,2.8,6.7,6.5c0,3.6-2.9,6.4-6.7,6.4
		C127.1,28.2,124.2,25.4,124.2,21.8z M134.2,21.8c0-1.9-1.4-3.3-3.2-3.3s-3.3,1.4-3.3,3.3c0,1.9,1.4,3.3,3.3,3.3
		S134.2,23.6,134.2,21.8z"/>
	<path class="st2" d="M151.8,20.4v7.5h-3.7v-7c0-1.5-0.9-2.4-2.2-2.4c-1.4,0-2.3,1-2.3,2.5v6.9H140v-12l3.5-0.4v1.4
		c0.9-1,2.2-1.6,3.7-1.6C150.1,15.4,151.8,17.3,151.8,20.4z"/>
	<path class="st2" d="M154.9,8.9l3.7-0.5v19.4h-3.7V8.9z"/>
	<path class="st2" d="M161.5,11.4c0-1.2,1-2.2,2.2-2.2c1.3,0,2.2,1,2.2,2.2c0,1.2-1,2.1-2.2,2.1C162.5,13.6,161.5,12.6,161.5,11.4z
		 M161.8,15.9l3.7-0.5v12.4h-3.7V15.9z"/>
	<path class="st2" d="M180.6,20.4v7.5h-3.7v-7c0-1.5-0.9-2.4-2.2-2.4c-1.4,0-2.3,1-2.3,2.5v6.9h-3.6v-12l3.5-0.4v1.4
		c0.9-1,2.2-1.6,3.7-1.6C178.9,15.4,180.6,17.3,180.6,20.4z"/>
	<path class="st2" d="M194,23.5l1,2.7c-1.5,1.2-3.5,2-5.5,2c-3.9,0-6.7-2.8-6.7-6.4s2.8-6.5,6.6-6.5c3.2,0,5.8,2.1,6.1,5.8l-8.9,2.9
		c0.6,0.9,1.7,1.5,3,1.5C190.9,25.4,192.4,24.9,194,23.5z M185.9,21.4l5.9-1.9c-0.5-0.9-1.4-1.4-2.5-1.4
		C187.5,18.1,186.1,19.4,185.9,21.4z"/>
</g>
</svg>
